G04 EAGLE Gerber RS-274X export*
G75*
%MOMM*%
%FSLAX34Y34*%
%LPD*%
%INCopper Layer 14*%
%IPPOS*%
%AMOC8*
5,1,8,0,0,1.08239X$1,22.5*%
G01*
G04 Define Apertures*
%ADD10C,0.452400*%
D10*
X635715Y-35318D03*
X617710Y-35318D03*
X359408Y238220D03*
X351098Y72713D03*
X247223Y834463D03*
X247223Y804685D03*
X472285Y810918D03*
X458435Y785295D03*
X65095Y754133D03*
X105953Y743053D03*
X1231958Y112878D03*
X1221570Y132268D03*
X1509650Y216753D03*
X1508958Y231295D03*
X1484720Y256225D03*
X1492338Y268690D03*
X1627375Y294313D03*
X1627375Y313010D03*
X1627375Y303315D03*
X1366995Y245145D03*
X1366995Y177280D03*
X394033Y45705D03*
X352483Y256918D03*
X164123Y258303D03*
X288080Y302623D03*
X50553Y652335D03*
X130190Y211213D03*
X76175Y157198D03*
X34625Y642640D03*
X155120Y249993D03*
X671033Y-76868D03*
X401650Y18698D03*
X468823Y121880D03*
X468130Y98335D03*
X123958Y211905D03*
X37395Y211905D03*
X43628Y443893D03*
X684190Y-57478D03*
X524223Y-66480D03*
X367025Y226448D03*
X367025Y93488D03*
X290158Y368410D03*
X207058Y368410D03*
X47090Y709120D03*
X83100Y425195D03*
X376028Y37395D03*
X588625Y9695D03*
X770753Y-15235D03*
X421733Y137115D03*
X567158Y-44320D03*
X581700Y-58863D03*
X646103Y42243D03*
X646103Y94413D03*
X517990Y-65095D03*
X612170Y27008D03*
X706350Y-121188D03*
X756210Y-71328D03*
X644025Y-74098D03*
X651643Y-38780D03*
X632945Y116340D03*
X632945Y45013D03*
X738898Y-82408D03*
X514528Y-103183D03*
X606630Y-90025D03*
X567158Y-50553D03*
X584470Y-77560D03*
X558155Y-51245D03*
X644718Y-67173D03*
X655105Y-33933D03*
X658568Y-81715D03*
X713968Y-78945D03*
X713968Y-58170D03*
X689730Y-33933D03*
X659260Y-97643D03*
X740283Y-74098D03*
X733358Y-60248D03*
X704965Y-36703D03*
X689038Y-76868D03*
X606630Y-117725D03*
X115648Y738898D03*
X65788Y562310D03*
X197363Y250685D03*
X318550Y67865D03*
X207058Y198748D03*
X693885Y-57478D03*
X527685Y-61633D03*
X442508Y23545D03*
X133653Y227833D03*
X24238Y475748D03*
X148888Y249993D03*
X679343Y-52630D03*
X532533Y-69943D03*
X207750Y361485D03*
X178665Y390570D03*
X704273Y-76868D03*
X934183Y-181435D03*
X179358Y373258D03*
X239605Y313010D03*
X423118Y129498D03*
X357330Y272845D03*
X1590673Y-184205D03*
X1395388Y295005D03*
X1644688Y45705D03*
X1637070Y-60248D03*
X189745Y425195D03*
X877398Y286695D03*
X1464638Y282540D03*
X1629453Y117725D03*
X1628068Y-66480D03*
X1625990Y-37395D03*
X201518Y402343D03*
X877398Y280463D03*
X1394695Y288080D03*
X338633Y370488D03*
X774908Y370488D03*
X873243Y247223D03*
X864933Y280463D03*
X204980Y265228D03*
X328938Y349713D03*
X338633Y349713D03*
X168970Y311625D03*
X871858Y371180D03*
X777678Y407883D03*
X149580Y378105D03*
X164123Y363563D03*
X404420Y141963D03*
X972963Y-179358D03*
X201518Y385723D03*
X266613Y385723D03*
X340710Y311625D03*
X1055370Y-179358D03*
X227833Y173818D03*
X227833Y227833D03*
X141270Y572005D03*
X167585Y545690D03*
X328938Y337248D03*
X506218Y810918D03*
X677958Y840695D03*
X107338Y369103D03*
X445970Y854545D03*
X245145Y463975D03*
X517298Y828230D03*
X1290820Y267998D03*
X209828Y270075D03*
X1374613Y299853D03*
X199440Y274923D03*
X455665Y827538D03*
X441123Y842080D03*
X143348Y514528D03*
X1207720Y306085D03*
X1209105Y283233D03*
X1249963Y276308D03*
X1276278Y283233D03*
X502755Y802608D03*
X502755Y791528D03*
X733358Y-66480D03*
X565773Y57478D03*
X537380Y33240D03*
X547768Y43628D03*
X336555Y254840D03*
X336555Y56093D03*
X333785Y394725D03*
M02*
