G04 EAGLE Gerber RS-274X export*
G75*
%MOMM*%
%FSLAX34Y34*%
%LPD*%
%INSoldermask Top*%
%IPPOS*%
%AMOC8*
5,1,8,0,0,1.08239X$1,22.5*%
G01*
G04 Define Apertures*
%ADD10R,1.603200X1.253200*%
%ADD11R,1.103200X0.903200*%
%ADD12R,1.603200X1.603200*%
%ADD13R,0.903200X1.103200*%
%ADD14R,2.403200X2.203200*%
%ADD15R,1.003200X1.003200*%
%ADD16R,1.403200X0.803200*%
%ADD17R,1.143200X1.173200*%
%ADD18R,1.173200X1.143200*%
%ADD19R,1.103200X1.003200*%
%ADD20R,1.353200X1.003200*%
%ADD21R,1.003200X1.103200*%
%ADD22R,1.103200X0.803200*%
%ADD23R,0.503200X1.003200*%
%ADD24R,0.603200X1.003200*%
%ADD25R,1.353200X0.503200*%
%ADD26R,2.203200X2.383200*%
%ADD27C,0.853200*%
%ADD28R,2.203200X1.403200*%
%ADD29R,1.553200X0.803200*%
%ADD30R,1.403200X2.003200*%
%ADD31R,2.103200X1.603200*%
%ADD32R,1.703200X0.903200*%
%ADD33R,0.965200X0.838200*%
%ADD34R,1.403200X0.753200*%
%ADD35R,1.703200X3.803200*%
%ADD36R,0.703200X1.253200*%
%ADD37C,0.330503*%
%ADD38R,0.152400X1.828800*%
%ADD39R,1.371600X1.803400*%
%ADD40C,2.203200*%
%ADD41C,0.315166*%
%ADD42R,3.603200X4.503200*%
%ADD43R,1.103200X1.703200*%
%ADD44C,0.349006*%
%ADD45C,0.269722*%
%ADD46C,0.306544*%
%ADD47R,1.103200X1.503200*%
%ADD48C,0.655600*%
D10*
X655800Y853828D03*
X620800Y853828D03*
X620800Y838828D03*
X655800Y838828D03*
D11*
X1631600Y-193200D03*
X1631600Y-180200D03*
X273600Y835578D03*
X273600Y848578D03*
D12*
X951000Y284400D03*
X951000Y262400D03*
D13*
X1185000Y302500D03*
X1172000Y302500D03*
D11*
X1323500Y134200D03*
X1323500Y147200D03*
D13*
X1216400Y104700D03*
X1229400Y104700D03*
D11*
X1616400Y-193200D03*
X1616400Y-180200D03*
X1339600Y337000D03*
X1339600Y350000D03*
D14*
X1291100Y111000D03*
X1291100Y141000D03*
D13*
X653000Y34900D03*
X640000Y34900D03*
X1529800Y219000D03*
X1516800Y219000D03*
D11*
X670824Y834578D03*
X670824Y847578D03*
D13*
X1527000Y239800D03*
X1514000Y239800D03*
D11*
X524124Y834578D03*
X524124Y847578D03*
X759200Y106600D03*
X759200Y119600D03*
X925000Y265800D03*
X925000Y278800D03*
X62800Y761800D03*
X62800Y774800D03*
D10*
X507100Y853828D03*
X472100Y853828D03*
X472100Y838828D03*
X507100Y838828D03*
D15*
X1230900Y302500D03*
X1215900Y302500D03*
D11*
X511700Y790400D03*
X511700Y803400D03*
D16*
X1502500Y277200D03*
X1502500Y267700D03*
X1502500Y258200D03*
X1527500Y258200D03*
X1527500Y267700D03*
X1527500Y277200D03*
D17*
X359400Y71200D03*
X359400Y86200D03*
X327200Y72200D03*
X327200Y87200D03*
D18*
X584000Y-200D03*
X599000Y-200D03*
D19*
X1204400Y122300D03*
X1204400Y143300D03*
D20*
X705800Y68800D03*
X740800Y68800D03*
X705200Y110800D03*
X740200Y110800D03*
X633600Y132800D03*
X668600Y132800D03*
D18*
X106500Y751700D03*
X121500Y751700D03*
D21*
X879400Y403800D03*
X900400Y403800D03*
D17*
X359800Y249200D03*
X359800Y264200D03*
X381600Y71200D03*
X381600Y86200D03*
D11*
X731900Y-44000D03*
X731900Y-31000D03*
X551500Y-70600D03*
X551500Y-57600D03*
X749100Y-43800D03*
X749100Y-30800D03*
X564900Y-70600D03*
X564900Y-57600D03*
X714000Y-43000D03*
X714000Y-30000D03*
X627100Y-45600D03*
X627100Y-32600D03*
X698100Y-43000D03*
X698100Y-30000D03*
X681200Y-45000D03*
X681200Y-32000D03*
X663300Y-45000D03*
X663300Y-32000D03*
X644400Y-45000D03*
X644400Y-32000D03*
D22*
X466700Y804200D03*
X466700Y794700D03*
X466700Y785200D03*
X494700Y785200D03*
X494700Y804200D03*
X1230100Y147200D03*
X1230100Y137700D03*
X1230100Y128200D03*
X1258100Y128200D03*
X1258100Y147200D03*
D23*
X743900Y-90100D03*
X738900Y-90100D03*
X733900Y-90100D03*
X728900Y-90100D03*
X723900Y-90100D03*
X718900Y-90100D03*
X713900Y-90100D03*
X708900Y-90100D03*
X703900Y-90100D03*
X698900Y-90100D03*
X693900Y-90100D03*
X688900Y-90100D03*
X683900Y-90100D03*
X678900Y-90100D03*
X673900Y-90100D03*
X668900Y-90100D03*
X663900Y-90100D03*
X658900Y-90100D03*
X653900Y-90100D03*
X648900Y-90100D03*
X643900Y-90100D03*
X638900Y-90100D03*
X633900Y-90100D03*
X628900Y-90100D03*
D24*
X753900Y-115100D03*
X618900Y-115100D03*
D25*
X1636790Y277100D03*
X1636790Y285100D03*
X1636790Y298100D03*
X1636790Y308100D03*
X1636790Y313100D03*
X1636790Y323100D03*
X1636790Y336100D03*
X1636790Y344100D03*
X1636790Y341100D03*
X1636790Y333100D03*
X1636790Y328100D03*
X1636790Y318100D03*
X1636790Y303100D03*
X1636790Y293100D03*
X1636790Y288100D03*
X1636790Y280100D03*
D26*
X1681840Y259500D03*
X1681840Y361700D03*
X1642540Y259500D03*
X1642540Y361700D03*
D27*
X1647540Y281700D03*
X1647540Y339500D03*
D28*
X1681840Y-66200D03*
X1681840Y-10200D03*
D29*
X1645090Y-53200D03*
X1645090Y-43200D03*
X1645090Y-33200D03*
X1645090Y-23200D03*
D30*
X162160Y623500D03*
X162160Y680500D03*
D31*
X19660Y593500D03*
X29660Y725000D03*
D32*
X58160Y641500D03*
X62160Y652500D03*
X58160Y663500D03*
X56160Y674500D03*
X58160Y685500D03*
X56160Y696500D03*
X58160Y707500D03*
X58160Y718500D03*
D30*
X162160Y652000D03*
X162160Y709000D03*
D33*
X650700Y107360D03*
X650700Y61640D03*
D34*
X1285801Y278400D03*
X1285801Y287900D03*
X1285801Y297400D03*
X1259799Y297400D03*
X1259799Y278400D03*
D35*
X1480900Y190000D03*
X1525900Y190000D03*
D21*
X1348100Y256600D03*
X1367100Y256600D03*
X1357600Y277600D03*
D19*
X590800Y51100D03*
X590800Y32100D03*
X611800Y41600D03*
D36*
X507900Y-96700D03*
X520900Y-96700D03*
X514400Y-75700D03*
D11*
X176200Y188600D03*
X176200Y201600D03*
X532600Y-148400D03*
X532600Y-135400D03*
D13*
X1216300Y276300D03*
X1229300Y276300D03*
D11*
X1651300Y-194800D03*
X1651300Y-181800D03*
D13*
X885600Y384900D03*
X898600Y384900D03*
D11*
X1179600Y132900D03*
X1179600Y145900D03*
D13*
X482900Y-126900D03*
X495900Y-126900D03*
D11*
X1598900Y-194800D03*
X1598900Y-181800D03*
D13*
X880800Y242900D03*
X893800Y242900D03*
D11*
X1558700Y317500D03*
X1558700Y330500D03*
X1476300Y255200D03*
X1476300Y268200D03*
X1244700Y196400D03*
X1244700Y209400D03*
X559400Y35600D03*
X559400Y48600D03*
X576800Y35600D03*
X576800Y48600D03*
X80000Y762600D03*
X80000Y775600D03*
X345200Y250600D03*
X345200Y263600D03*
X384400Y37600D03*
X384400Y50600D03*
X362600Y37600D03*
X362600Y50600D03*
X329800Y36600D03*
X329800Y49600D03*
D10*
X257893Y853828D03*
X222893Y853828D03*
X222893Y838828D03*
X257893Y838828D03*
D11*
X607776Y834578D03*
X607776Y847578D03*
X928600Y367900D03*
X928600Y380900D03*
X456300Y834578D03*
X456300Y847578D03*
D13*
X541300Y-98700D03*
X554300Y-98700D03*
D11*
X205976Y835578D03*
X205976Y848578D03*
D37*
X1614264Y-120776D02*
X1614264Y-129664D01*
X1610536Y-129664D01*
X1610536Y-120776D01*
X1614264Y-120776D01*
X1614264Y-126524D02*
X1610536Y-126524D01*
X1610536Y-123384D02*
X1614264Y-123384D01*
X1622264Y-120776D02*
X1622264Y-129664D01*
X1618536Y-129664D01*
X1618536Y-120776D01*
X1622264Y-120776D01*
X1622264Y-126524D02*
X1618536Y-126524D01*
X1618536Y-123384D02*
X1622264Y-123384D01*
X1630264Y-120776D02*
X1630264Y-129664D01*
X1626536Y-129664D01*
X1626536Y-120776D01*
X1630264Y-120776D01*
X1630264Y-126524D02*
X1626536Y-126524D01*
X1626536Y-123384D02*
X1630264Y-123384D01*
X1638264Y-120776D02*
X1638264Y-129664D01*
X1634536Y-129664D01*
X1634536Y-120776D01*
X1638264Y-120776D01*
X1638264Y-126524D02*
X1634536Y-126524D01*
X1634536Y-123384D02*
X1638264Y-123384D01*
X1638464Y-149936D02*
X1638464Y-158824D01*
X1634736Y-158824D01*
X1634736Y-149936D01*
X1638464Y-149936D01*
X1638464Y-155684D02*
X1634736Y-155684D01*
X1634736Y-152544D02*
X1638464Y-152544D01*
X1630264Y-149936D02*
X1630264Y-158824D01*
X1626536Y-158824D01*
X1626536Y-149936D01*
X1630264Y-149936D01*
X1630264Y-155684D02*
X1626536Y-155684D01*
X1626536Y-152544D02*
X1630264Y-152544D01*
X1622264Y-149936D02*
X1622264Y-158824D01*
X1618536Y-158824D01*
X1618536Y-149936D01*
X1622264Y-149936D01*
X1622264Y-155684D02*
X1618536Y-155684D01*
X1618536Y-152544D02*
X1622264Y-152544D01*
X1614264Y-149936D02*
X1614264Y-158824D01*
X1610536Y-158824D01*
X1610536Y-149936D01*
X1614264Y-149936D01*
X1614264Y-155684D02*
X1610536Y-155684D01*
X1610536Y-152544D02*
X1614264Y-152544D01*
D38*
X490600Y-156100D03*
D39*
X482980Y-156100D03*
X498220Y-156100D03*
D40*
X983100Y-189100D03*
X55900Y552100D03*
X23900Y551900D03*
X91400Y551100D03*
X125900Y553100D03*
X1490900Y379900D03*
X777400Y848900D03*
X735900Y847900D03*
X904400Y-190100D03*
X1065300Y-189100D03*
X1491500Y420900D03*
X1105700Y-188100D03*
X841900Y845078D03*
X1025100Y-190100D03*
X28300Y156900D03*
X24500Y198900D03*
X943700Y-191100D03*
D41*
X353090Y349010D02*
X344810Y349010D01*
X344810Y352290D01*
X353090Y352290D01*
X353090Y349010D01*
X353090Y352004D02*
X344810Y352004D01*
X344810Y336310D02*
X353090Y336310D01*
X344810Y336310D02*
X344810Y339590D01*
X353090Y339590D01*
X353090Y336310D01*
X353090Y339304D02*
X344810Y339304D01*
X344810Y323610D02*
X353090Y323610D01*
X344810Y323610D02*
X344810Y326890D01*
X353090Y326890D01*
X353090Y323610D01*
X353090Y326604D02*
X344810Y326604D01*
X344810Y310910D02*
X353090Y310910D01*
X344810Y310910D02*
X344810Y314190D01*
X353090Y314190D01*
X353090Y310910D01*
X353090Y313904D02*
X344810Y313904D01*
X422710Y310910D02*
X430990Y310910D01*
X422710Y310910D02*
X422710Y314190D01*
X430990Y314190D01*
X430990Y310910D01*
X430990Y313904D02*
X422710Y313904D01*
X422710Y323610D02*
X430990Y323610D01*
X422710Y323610D02*
X422710Y326890D01*
X430990Y326890D01*
X430990Y323610D01*
X430990Y326604D02*
X422710Y326604D01*
X422710Y336310D02*
X430990Y336310D01*
X422710Y336310D02*
X422710Y339590D01*
X430990Y339590D01*
X430990Y336310D01*
X430990Y339304D02*
X422710Y339304D01*
X422710Y349010D02*
X430990Y349010D01*
X422710Y349010D02*
X422710Y352290D01*
X430990Y352290D01*
X430990Y349010D01*
X430990Y352004D02*
X422710Y352004D01*
D42*
X387900Y331600D03*
D43*
X79400Y238900D03*
X92100Y238900D03*
X104800Y238900D03*
X117500Y238900D03*
X130200Y238900D03*
X142900Y238900D03*
X155600Y238900D03*
X168300Y238900D03*
X181000Y238900D03*
X193700Y238900D03*
X206400Y238900D03*
X219100Y238900D03*
X231800Y238900D03*
X244500Y238900D03*
X244500Y413900D03*
X231800Y413900D03*
X219100Y413900D03*
X206400Y413900D03*
X193700Y413900D03*
X181000Y413900D03*
X168300Y413900D03*
X155600Y413900D03*
X142900Y413900D03*
X130200Y413900D03*
X117500Y413900D03*
X104800Y413900D03*
X92100Y413900D03*
X79400Y413900D03*
D15*
X136600Y311350D03*
X124100Y298850D03*
X124100Y311350D03*
X124100Y323850D03*
X136600Y298850D03*
X136600Y323850D03*
X149100Y298850D03*
X149100Y311350D03*
X149100Y323850D03*
D44*
X888729Y350029D02*
X888729Y369071D01*
X893171Y369071D01*
X893171Y350029D01*
X888729Y350029D01*
X888729Y353344D02*
X893171Y353344D01*
X893171Y356659D02*
X888729Y356659D01*
X888729Y359974D02*
X893171Y359974D01*
X893171Y363289D02*
X888729Y363289D01*
X888729Y366604D02*
X893171Y366604D01*
X876029Y369071D02*
X876029Y350029D01*
X876029Y369071D02*
X880471Y369071D01*
X880471Y350029D01*
X876029Y350029D01*
X876029Y353344D02*
X880471Y353344D01*
X880471Y356659D02*
X876029Y356659D01*
X876029Y359974D02*
X880471Y359974D01*
X880471Y363289D02*
X876029Y363289D01*
X876029Y366604D02*
X880471Y366604D01*
X863329Y369071D02*
X863329Y350029D01*
X863329Y369071D02*
X867771Y369071D01*
X867771Y350029D01*
X863329Y350029D01*
X863329Y353344D02*
X867771Y353344D01*
X867771Y356659D02*
X863329Y356659D01*
X863329Y359974D02*
X867771Y359974D01*
X867771Y363289D02*
X863329Y363289D01*
X863329Y366604D02*
X867771Y366604D01*
X850629Y369071D02*
X850629Y350029D01*
X850629Y369071D02*
X855071Y369071D01*
X855071Y350029D01*
X850629Y350029D01*
X850629Y353344D02*
X855071Y353344D01*
X855071Y356659D02*
X850629Y356659D01*
X850629Y359974D02*
X855071Y359974D01*
X855071Y363289D02*
X850629Y363289D01*
X850629Y366604D02*
X855071Y366604D01*
X837929Y369071D02*
X837929Y350029D01*
X837929Y369071D02*
X842371Y369071D01*
X842371Y350029D01*
X837929Y350029D01*
X837929Y353344D02*
X842371Y353344D01*
X842371Y356659D02*
X837929Y356659D01*
X837929Y359974D02*
X842371Y359974D01*
X842371Y363289D02*
X837929Y363289D01*
X837929Y366604D02*
X842371Y366604D01*
X825229Y369071D02*
X825229Y350029D01*
X825229Y369071D02*
X829671Y369071D01*
X829671Y350029D01*
X825229Y350029D01*
X825229Y353344D02*
X829671Y353344D01*
X829671Y356659D02*
X825229Y356659D01*
X825229Y359974D02*
X829671Y359974D01*
X829671Y363289D02*
X825229Y363289D01*
X825229Y366604D02*
X829671Y366604D01*
X812529Y369071D02*
X812529Y350029D01*
X812529Y369071D02*
X816971Y369071D01*
X816971Y350029D01*
X812529Y350029D01*
X812529Y353344D02*
X816971Y353344D01*
X816971Y356659D02*
X812529Y356659D01*
X812529Y359974D02*
X816971Y359974D01*
X816971Y363289D02*
X812529Y363289D01*
X812529Y366604D02*
X816971Y366604D01*
X799829Y369071D02*
X799829Y350029D01*
X799829Y369071D02*
X804271Y369071D01*
X804271Y350029D01*
X799829Y350029D01*
X799829Y353344D02*
X804271Y353344D01*
X804271Y356659D02*
X799829Y356659D01*
X799829Y359974D02*
X804271Y359974D01*
X804271Y363289D02*
X799829Y363289D01*
X799829Y366604D02*
X804271Y366604D01*
X799829Y275971D02*
X799829Y256929D01*
X799829Y275971D02*
X804271Y275971D01*
X804271Y256929D01*
X799829Y256929D01*
X799829Y260244D02*
X804271Y260244D01*
X804271Y263559D02*
X799829Y263559D01*
X799829Y266874D02*
X804271Y266874D01*
X804271Y270189D02*
X799829Y270189D01*
X799829Y273504D02*
X804271Y273504D01*
X812529Y275971D02*
X812529Y256929D01*
X812529Y275971D02*
X816971Y275971D01*
X816971Y256929D01*
X812529Y256929D01*
X812529Y260244D02*
X816971Y260244D01*
X816971Y263559D02*
X812529Y263559D01*
X812529Y266874D02*
X816971Y266874D01*
X816971Y270189D02*
X812529Y270189D01*
X812529Y273504D02*
X816971Y273504D01*
X825229Y275971D02*
X825229Y256929D01*
X825229Y275971D02*
X829671Y275971D01*
X829671Y256929D01*
X825229Y256929D01*
X825229Y260244D02*
X829671Y260244D01*
X829671Y263559D02*
X825229Y263559D01*
X825229Y266874D02*
X829671Y266874D01*
X829671Y270189D02*
X825229Y270189D01*
X825229Y273504D02*
X829671Y273504D01*
X837929Y275971D02*
X837929Y256929D01*
X837929Y275971D02*
X842371Y275971D01*
X842371Y256929D01*
X837929Y256929D01*
X837929Y260244D02*
X842371Y260244D01*
X842371Y263559D02*
X837929Y263559D01*
X837929Y266874D02*
X842371Y266874D01*
X842371Y270189D02*
X837929Y270189D01*
X837929Y273504D02*
X842371Y273504D01*
X850629Y275971D02*
X850629Y256929D01*
X850629Y275971D02*
X855071Y275971D01*
X855071Y256929D01*
X850629Y256929D01*
X850629Y260244D02*
X855071Y260244D01*
X855071Y263559D02*
X850629Y263559D01*
X850629Y266874D02*
X855071Y266874D01*
X855071Y270189D02*
X850629Y270189D01*
X850629Y273504D02*
X855071Y273504D01*
X863329Y275971D02*
X863329Y256929D01*
X863329Y275971D02*
X867771Y275971D01*
X867771Y256929D01*
X863329Y256929D01*
X863329Y260244D02*
X867771Y260244D01*
X867771Y263559D02*
X863329Y263559D01*
X863329Y266874D02*
X867771Y266874D01*
X867771Y270189D02*
X863329Y270189D01*
X863329Y273504D02*
X867771Y273504D01*
X876029Y275971D02*
X876029Y256929D01*
X876029Y275971D02*
X880471Y275971D01*
X880471Y256929D01*
X876029Y256929D01*
X876029Y260244D02*
X880471Y260244D01*
X880471Y263559D02*
X876029Y263559D01*
X876029Y266874D02*
X880471Y266874D01*
X880471Y270189D02*
X876029Y270189D01*
X876029Y273504D02*
X880471Y273504D01*
X888729Y275971D02*
X888729Y256929D01*
X888729Y275971D02*
X893171Y275971D01*
X893171Y256929D01*
X888729Y256929D01*
X888729Y260244D02*
X893171Y260244D01*
X893171Y263559D02*
X888729Y263559D01*
X888729Y266874D02*
X893171Y266874D01*
X893171Y270189D02*
X888729Y270189D01*
X888729Y273504D02*
X893171Y273504D01*
D45*
X1366382Y352682D02*
X1373318Y352682D01*
X1366382Y352682D02*
X1366382Y354718D01*
X1373318Y354718D01*
X1373318Y352682D01*
D46*
X1373134Y347104D02*
X1366566Y347104D01*
X1366566Y350296D01*
X1373134Y350296D01*
X1373134Y347104D01*
X1373134Y350016D02*
X1366566Y350016D01*
X1366566Y342104D02*
X1373134Y342104D01*
X1366566Y342104D02*
X1366566Y345296D01*
X1373134Y345296D01*
X1373134Y342104D01*
X1373134Y345016D02*
X1366566Y345016D01*
D45*
X1366382Y337682D02*
X1373318Y337682D01*
X1366382Y337682D02*
X1366382Y339718D01*
X1373318Y339718D01*
X1373318Y337682D01*
X1386082Y337682D02*
X1393018Y337682D01*
X1386082Y337682D02*
X1386082Y339718D01*
X1393018Y339718D01*
X1393018Y337682D01*
X1393018Y342682D02*
X1386082Y342682D01*
X1386082Y344718D01*
X1393018Y344718D01*
X1393018Y342682D01*
X1393018Y347682D02*
X1386082Y347682D01*
X1386082Y349718D01*
X1393018Y349718D01*
X1393018Y347682D01*
X1393018Y352682D02*
X1386082Y352682D01*
X1386082Y354718D01*
X1393018Y354718D01*
X1393018Y352682D01*
D47*
X1379700Y346200D03*
D48*
X635715Y-35318D03*
X617710Y-35318D03*
X359408Y238220D03*
X351098Y72713D03*
X247223Y834463D03*
X247223Y804685D03*
X472285Y810918D03*
X458435Y785295D03*
X65095Y754133D03*
X105953Y743053D03*
X1231958Y112878D03*
X1221570Y132268D03*
X1509650Y216753D03*
X1508958Y231295D03*
X1484720Y256225D03*
X1492338Y268690D03*
X1627375Y294313D03*
X1627375Y313010D03*
X1627375Y303315D03*
X1366995Y245145D03*
X1366995Y177280D03*
X394033Y45705D03*
X352483Y256918D03*
X164123Y258303D03*
X288080Y302623D03*
X50553Y652335D03*
X130190Y211213D03*
X76175Y157198D03*
X34625Y642640D03*
X155120Y249993D03*
X671033Y-76868D03*
X401650Y18698D03*
X468823Y121880D03*
X468130Y98335D03*
X123958Y211905D03*
X37395Y211905D03*
X43628Y443893D03*
X684190Y-57478D03*
X524223Y-66480D03*
X367025Y226448D03*
X367025Y93488D03*
X290158Y368410D03*
X207058Y368410D03*
X47090Y709120D03*
X83100Y425195D03*
X376028Y37395D03*
X588625Y9695D03*
X770753Y-15235D03*
X421733Y137115D03*
X567158Y-44320D03*
X581700Y-58863D03*
X646103Y42243D03*
X646103Y94413D03*
X517990Y-65095D03*
X612170Y27008D03*
X706350Y-121188D03*
X756210Y-71328D03*
X644025Y-74098D03*
X651643Y-38780D03*
X632945Y116340D03*
X632945Y45013D03*
X738898Y-82408D03*
X514528Y-103183D03*
X606630Y-90025D03*
X567158Y-50553D03*
X584470Y-77560D03*
X558155Y-51245D03*
X644718Y-67173D03*
X655105Y-33933D03*
X658568Y-81715D03*
X713968Y-78945D03*
X713968Y-58170D03*
X689730Y-33933D03*
X659260Y-97643D03*
X740283Y-74098D03*
X733358Y-60248D03*
X704965Y-36703D03*
X689038Y-76868D03*
X606630Y-117725D03*
X115648Y738898D03*
X65788Y562310D03*
X197363Y250685D03*
X318550Y67865D03*
X207058Y198748D03*
X693885Y-57478D03*
X527685Y-61633D03*
X442508Y23545D03*
X133653Y227833D03*
X24238Y475748D03*
X148888Y249993D03*
X679343Y-52630D03*
X532533Y-69943D03*
X207750Y361485D03*
X178665Y390570D03*
X704273Y-76868D03*
X934183Y-181435D03*
X179358Y373258D03*
X239605Y313010D03*
X423118Y129498D03*
X357330Y272845D03*
X1590673Y-184205D03*
X1395388Y295005D03*
X1644688Y45705D03*
X1637070Y-60248D03*
X189745Y425195D03*
X877398Y286695D03*
X1464638Y282540D03*
X1629453Y117725D03*
X1628068Y-66480D03*
X1625990Y-37395D03*
X201518Y402343D03*
X877398Y280463D03*
X1394695Y288080D03*
X338633Y370488D03*
X774908Y370488D03*
X873243Y247223D03*
X864933Y280463D03*
X204980Y265228D03*
X328938Y349713D03*
X338633Y349713D03*
X168970Y311625D03*
X871858Y371180D03*
X777678Y407883D03*
X149580Y378105D03*
X164123Y363563D03*
X404420Y141963D03*
X972963Y-179358D03*
X201518Y385723D03*
X266613Y385723D03*
X340710Y311625D03*
X1055370Y-179358D03*
X227833Y173818D03*
X227833Y227833D03*
X141270Y572005D03*
X167585Y545690D03*
X328938Y337248D03*
X506218Y810918D03*
X677958Y840695D03*
X107338Y369103D03*
X445970Y854545D03*
X245145Y463975D03*
X517298Y828230D03*
X1290820Y267998D03*
X209828Y270075D03*
X1374613Y299853D03*
X199440Y274923D03*
X455665Y827538D03*
X441123Y842080D03*
X143348Y514528D03*
X1207720Y306085D03*
X1209105Y283233D03*
X1249963Y276308D03*
X1276278Y283233D03*
X502755Y802608D03*
X502755Y791528D03*
X733358Y-66480D03*
X565773Y57478D03*
X537380Y33240D03*
X547768Y43628D03*
X336555Y254840D03*
X336555Y56093D03*
X333785Y394725D03*
M02*
